<svg xmlns="http://www.w3.org/2000/svg" viewBox="0 0 816 1056" height="1056" width="816"><defs><clipPath id="a"><path d="M0 792h612V0H0z"/></clipPath></defs><g clip-path="url(#a)" fill="#f20000" transform="matrix(1.33333 0 0 -1.33333 0 1056)"><path d="M166.952 298.183l26.81-25.368h182.183l-67.165 43.818zM159.457 304.813L298.69 322.11s-2.017 7.205 8.072 8.648c10.09 1.442 68.03 9.224 68.03 9.224s23.64.867 42.377 18.162c0 0 13.547 12.683 21.618 27.385L134.954 327.3zM128.325 333.93l-21.91 19.024 384.55 100.462-12.108-19.17s-12.97-27.962-59.094-37.475c-46.122-9.512-163.736-31.13-163.736-31.13s-12.396 0-13.26-10.092zM198.374 384.087l-98.012-26.52-10.09 8.646S77.88 378.61 102.38 386.68l424.907 137.216s-3.46-11.674-10.378-23.35c-6.92-11.673-16.432-30.267-59.24-41.51l-247.766-64.86s-12.683-.865-11.53-10.09"/><path d="M561.174 612.235L83.93 417.655s-65.58-25.208-15.854-73.636l76.968-71.35 39.348-.43-103.344 89.94s-22.485 15.998 13.837 31.996L502.64 540.328s46.155 11.066 58.534 71.907M436.662 219.315c-2.637-3.194-6.09-5.515-10.367-6.96-4.277-1.448-8.426-2.17-16.007-2.17-2.728 0-4.45.077-5.167.236-.714.157-1.26.45-1.628.882-.232.284-.348 1.058-.348 2.32v37.256h10.68c6.794 0 10.24-.66 13.892-1.978 3.652-1.318 6.714-3.588 9.186-6.812 2.474-3.222 1.933-7.01 1.933-11.363 0-4.414.46-8.216-2.173-11.41m28.078 11.753c0 6.203-.25 11.52-4.304 15.95-4.055 4.43-9.49 7.776-16.303 10.034-6.813 2.26-14.21 3.387-25.75 3.387h-49.038v-8.228h3.356c2.938 0 4.86-.138 5.77-.41.906-.272 1.558-.673 1.955-1.202.395-.53.594-1.71.594-3.543V214.31c0-1.836-.188-3.026-.56-3.57-.56-.686-1.282-1.175-2.17-1.46-.885-.287-2.748-.43-5.59-.43h-3.355v-8.227h42.994c3.89 0 9.066.328 15.532.985 6.466.656 9.68 1.5 13.203 2.53 4.68 1.373 9.06 3.423 13.142 6.154 4.078 2.73 7.146 5.796 9.21 9.197 2.06 3.4 1.313 7.26 1.313 11.578m-137.297 21.144h4.725c2.27 0 3.798-.138 4.587-.41.79-.272 1.413-.75 1.875-1.44.324-.457.487-1.603.487-3.436v-28.518l-33.717 42.03h-42.665v-8.226h5.18c1.842 0 3.155-.138 3.94-.41.78-.272 1.402-.715 1.863-1.33.46-.618.69-1.584.69-2.902v-34.38c0-1.203-.253-2.106-.76-2.707-.507-.6-1.186-1.025-2.038-1.268-.85-.243-2.428-.364-4.73-.364h-4.145v-8.227h36.356v8.228h-4.627c-2.21 0-3.766.143-4.663.43-.9.285-1.522.674-1.866 1.16-.344.486-.517 1.618-.517 3.397v30.898l35.853-44.112h28.856v46.31c0 1.802.183 2.975.552 3.518.368.544 1.025.974 1.97 1.29.945.315 2.522.472 4.732.472h4.42v8.227h-36.357zm170.714-24.017l12.453 18.882 12.067-18.882zm63.17-18.497c-1.223.567-2.62 2.066-4.19 4.502l-29.005 46.24h-22.794l-24.91-.005v-7.15l8.745-.566c3.634.04 4.845-2.223 3.805-4.984l-21.813-34.462c-.882-1.403-1.682-2.364-2.397-2.878-.72-.515-1.634-.904-2.746-1.16-1.112-.257-2.873-.385-5.28-.385v-8.227h37.47v8.228c-3.564 0-5.738.058-6.524.172-1.202.17-2.067.44-2.598.81-.532.374-.8.787-.8 1.243 0 .4.368 1.24 1.108 2.526l3.622 6.035h34.803l2.85-5.437c.88-1.6 1.316-2.653 1.316-3.166 0-.6-.51-1.105-1.526-1.517-1.02-.414-2.8-.62-5.348-.62l-2.78-.044v-8.227h45.81v8.228c-3.324 0-5.596.282-6.82.848M114.56 252.212h3.638c2.974 0 4.898-.13 5.768-.388.87-.257 1.49-.73 1.855-1.413.276-.485.413-1.415.413-2.788v-11.2H90.987v10.428c0 1.858.185 3.064.553 3.624.37.556.99.986 1.864 1.286.876.3 2.51.452 4.906.452h4.353v8.227H55.41v-8.228h4.333c2.422 0 4.053-.144 4.893-.43.84-.288 1.457-.74 1.853-1.354.395-.615.593-1.94.593-3.975v-32.576c0-1.747-.198-2.88-.594-3.394-.397-.515-1.132-.918-2.203-1.203-1.073-.287-2.958-.43-5.662-.43H55.41v-8.227h47.253v8.228h-3.248c-2.948 0-4.906.116-5.872.343-.967.23-1.68.703-2.14 1.424-.278.488-.416 1.738-.416 3.75v10.938h35.246v-10.938c0-2.012-.194-3.292-.584-3.837-.39-.546-1.1-.963-2.13-1.25-1.03-.287-2.987-.43-5.87-.43h-3.09v-8.227h47.252v8.228h-2.78c-3.243 0-5.316.122-6.22.365-.902.243-1.575.66-2.014 1.248-.442.586-.66 1.883-.66 3.887v32.49c0 1.977.173 3.23.52 3.76.348.53.96.93 1.842 1.203.878.27 2.663.41 5.35.41h3.962v8.226H114.56zm113.353-37.323c-4.02-3.38-9.387-5.07-16.097-5.07-6.67 0-12.037 1.69-16.097 5.07-4.704 3.95-7.053 9.318-7.053 16.103 0 6.785 2.52 12.323 7.566 16.62 4.02 3.406 9.427 5.11 16.224 5.11 4.06 0 7.822-.805 11.286-2.407 3.463-1.6 6.21-4.02 8.24-7.256 2.03-3.237 3.046-7.23 3.046-11.982 0-6.755-2.373-12.153-7.117-16.19m18.726 38.745c-8.78 5.798-20.26 8.697-34.44 8.697-14.396 0-26.046-2.914-34.95-8.74-8.906-5.825-13.36-13.315-13.36-22.47 0-9.844 5.083-17.705 15.25-23.59 8.413-4.877 19.22-7.315 32.42-7.315 9.994 0 18.526 1.284 25.595 3.852 7.07 2.568 12.612 6.22 16.626 10.956 4.017 4.734 6.025 10.158 6.025 16.27 0 9.095-4.39 16.545-13.166 22.34"/></g></svg>