<svg xmlns="http://www.w3.org/2000/svg" viewBox="0 0 841.88977 595.27557" height="595.276" width="841.89"><path d="M558.622 252.82c10.567-1.834 21.5-1.847 32.045.162 23.268 4.977 23.583 22.703 19.862 42.402-3.116 14.155-7.647 29.287-19.274 38.85-11.116 8.83-26.097 9.766-39.727 9.558-8.327-.546-17.22-1.717-24.086-6.87-13.022-9.748-8.85-31.627-5.18-45.208 5.138-19.002 15.068-35.738 36.358-38.895zm-7.265 26.985c-4.058 7.487-5.79 15.945-7.77 24.148-1.01 5.048-2.552 10.78.41 15.475 2.602 3.874 7.73 4.482 12.002 4.922 6.188.27 12.918.177 18.352-3.215 5.158-3.644 7.255-9.95 9.128-15.69 2.105-7.567 4.69-15.156 4.855-23.083.287-9.628-8.1-11.29-15.828-11.436-8.29-.156-16.782.627-21.15 8.88zM157.365 253.19h7.063c1.68 0 2.673 1.362 2.216 3.043l-19.08 70.174c-3.912 13.28-15.925 15.825-26.98 15.674-9.827-.135-14.53-2.595-16.908-9.29-1.097-3.087-1.594-6.604-1.87-10.204v-.014c-.093-1.232-.16-2.473-.218-3.71-.85-14.455-1.676-28.942-2.533-43.492-.02-.427-.054-.88-.19-1.26-.214-.605-.64-.828-1.53-.84-1-.014-2.086.217-2.44 1.418L80.83 326.42c-1.176 4.176-2.19 8.654-5.293 11.937-2.856 2.874-7.177 3.687-11.16 3.73h-7.063c-1.68 0-2.674-1.363-2.217-3.044l19.082-70.175c3.91-13.28 15.922-15.825 26.978-15.673 9.826.135 14.53 2.595 16.908 9.29 1.097 3.087 1.594 6.604 1.868 10.204v.014c.095 1.23.163 2.472.22 3.71.853 14.517 1.68 29.007 2.533 43.49.02.428.054.882.19 1.26.214.607.64.83 1.528.84 1 .015 2.087-.215 2.44-1.417l14.068-51.732c1.175-4.176 2.19-8.654 5.292-11.937 2.855-2.874 7.177-3.687 11.16-3.73zm-1.443 85.853l15.326-56.364c2.21-7.86 4.13-16.29 9.84-22.47 5.25-5.41 13.138-6.94 20.4-7.02h46.2c1.682 0 2.674 1.362 2.217 3.043l-.194.713c-1.174 4.176-2.188 8.654-5.29 11.937-2.856 2.874-7.178 3.687-11.16 3.73H205.14c-2.894.03-6.034.62-8.108 2.71-2.254 2.384-2.99 5.637-3.845 8.67l-.84 3.082h40.08c1.68 0 2.674 1.363 2.217 3.045l-.194.713c-1.176 4.176-2.19 8.654-5.293 11.937-2.855 2.874-7.176 3.687-11.16 3.73h-22.072c-2.894.03-6.034.62-8.108 2.71-2.255 2.384-2.99 5.637-3.845 8.67l-1.3 4.783h50.338c1.68 0 2.674 1.363 2.216 3.044l-.195.714c-1.175 4.176-2.188 8.654-5.292 11.938-2.855 2.874-7.177 3.686-11.16 3.73h-60.445c-1.68 0-2.674-1.364-2.216-3.045zm453.058 0l15.326-56.364c2.21-7.86 4.13-16.29 9.84-22.47 5.25-5.41 13.14-6.94 20.4-7.02h46.2c1.682 0 2.674 1.362 2.217 3.043l-.194.713c-1.176 4.176-2.19 8.654-5.293 11.937-2.855 2.874-7.177 3.687-11.16 3.73H658.2c-2.894.03-6.034.62-8.108 2.71-2.254 2.384-2.99 5.637-3.845 8.67l-.838 3.082h40.078c1.68 0 2.674 1.363 2.217 3.045l-.194.713c-1.174 4.176-2.188 8.654-5.292 11.937-2.855 2.874-7.176 3.687-11.16 3.73h-22.072c-2.894.03-6.034.62-8.108 2.71-2.255 2.384-2.99 5.637-3.845 8.67l-1.3 4.783h50.338c1.682 0 2.675 1.363 2.217 3.044l-.193.714c-1.176 4.176-2.19 8.654-5.293 11.938-2.854 2.874-7.175 3.686-11.16 3.73h-60.444c-1.68 0-2.673-1.364-2.216-3.045zM341.644 253.19H270.02c-3.984.04-8.306.854-11.16 3.728-3.104 3.283-4.118 7.76-5.293 11.937l-.194.713c-.457 1.682.535 3.044 2.216 3.044h27.042c1.68 0 2.674 1.363 2.217 3.045l-17.237 63.386c-.457 1.68.535 3.044 2.217 3.044h7.062c3.984-.043 8.305-.855 11.16-3.73 3.104-3.283 4.117-7.76 5.293-11.936l10.37-38.14c1.176-4.177 2.19-8.655 5.293-11.938 2.855-2.874 7.177-3.687 11.16-3.73h7.046c3.983-.042 8.305-.855 11.16-3.73 3.103-3.282 4.117-7.76 5.292-11.936l.194-.713c.457-1.68-.535-3.044-2.216-3.044zm72.998 85.853c-.457 1.68.535 3.044 2.217 3.044h7.06c3.985-.043 8.306-.855 11.16-3.73 3.105-3.283 4.12-7.76 5.294-11.937l1.465-5.388c1.174-4.176 2.188-8.654 5.29-11.937 2.856-2.875 7.178-3.687 11.16-3.73h24.825c1.68 0 2.673 1.363 2.217 3.044l-8.33 30.633c-.457 1.68.535 3.044 2.216 3.044h7.063c3.984-.043 8.306-.855 11.16-3.73 3.105-3.283 4.118-7.76 5.293-11.937l19.085-70.187c.457-1.68-.535-3.044-2.216-3.044h-7.063c-3.984.04-8.306.854-11.16 3.728-3.105 3.283-4.118 7.76-5.294 11.937l-.386 1.42c-1.175 4.176-2.188 8.654-5.292 11.937-2.855 2.874-7.177 3.687-11.16 3.73h-24.824c-1.68 0-2.673-1.363-2.216-3.045l7.25-26.664c.458-1.68-.535-3.044-2.216-3.044h-7.063c-3.984.04-8.306.854-11.16 3.728-3.104 3.283-4.118 7.76-5.293 11.937l-19.085 70.188zm-31.516 3.043H331.66c-1.682 0-2.674-1.363-2.218-3.044l.2-.736c1.176-4.176 2.19-8.654 5.293-11.937 2.855-2.875 7.177-3.688 11.16-3.73h37.532c1.232-.044 2.598-.257 3.478-1.21.92-1.04 1.343-2.53 1.04-3.895-.296-.97-1.083-1.67-1.905-2.2-.177-.116-.354-.23-.532-.344-8.245-5.127-16.56-10.238-24.817-15.377-1.077-.69-2.152-1.382-3.226-2.078-4.995-3.217-9.77-7.48-11.572-13.36-1.83-8.28.734-17.326 6.322-23.65 5.338-5.778 13.63-7.074 21.1-7.336h48.895c1.68 0 2.673 1.362 2.216 3.043l-.2.736c-1.175 4.175-2.19 8.653-5.293 11.936-2.855 2.874-7.177 3.687-11.16 3.73H373.27c-1.232.043-2.6.257-3.48 1.21-.924 1.044-1.346 2.537-1.045 3.903.297.97 1.086 1.673 1.91 2.204 8.226 5.332 16.766 10.42 25.118 15.618 1.078.69 2.153 1.385 3.226 2.082 4.993 3.223 9.765 7.493 11.564 13.384 1.824 8.298-.743 17.362-6.335 23.697-5.342 5.79-13.634 7.09-21.104 7.35zm362.166 0h-51.467c-1.68 0-2.673-1.363-2.216-3.044l.2-.736c1.174-4.176 2.188-8.654 5.29-11.937 2.856-2.875 7.178-3.688 11.16-3.73h37.535c1.23-.044 2.596-.257 3.476-1.21.922-1.04 1.344-2.53 1.042-3.895-.296-.97-1.083-1.67-1.906-2.2l-.53-.344c-8.246-5.127-16.56-10.238-24.818-15.377-1.078-.69-2.154-1.382-3.227-2.078-4.995-3.217-9.77-7.48-11.57-13.36-1.83-8.28.732-17.326 6.32-23.65 5.34-5.778 13.63-7.074 21.1-7.336h48.896c1.68 0 2.673 1.362 2.216 3.043l-.2.736c-1.175 4.175-2.19 8.653-5.292 11.936-2.855 2.874-7.177 3.687-11.16 3.73h-34.703c-1.233.043-2.6.257-3.482 1.21-.922 1.044-1.345 2.537-1.043 3.903.297.97 1.085 1.673 1.91 2.204 8.225 5.332 16.765 10.42 25.118 15.618 1.077.69 2.153 1.385 3.226 2.082 4.993 3.223 9.765 7.493 11.565 13.384 1.825 8.298-.742 17.362-6.334 23.697-5.34 5.79-13.633 7.09-21.104 7.35z" fill="#662985" fill-rule="evenodd"/></svg>