<svg xmlns="http://www.w3.org/2000/svg" viewBox="0 0 108 53"><path d="M.8 2.1C.8 1 1 .4 1.6.4h19.1C29.6.4 34 4.4 34 12.6V23c0 8.1-4.4 12.2-13.3 12.2h-8.3v15.7c0 1.2-.3 1.7-.8 1.7h-10c-.6 0-.8-.6-.8-1.7V2.1zm12.4 22.7h7.5c1.1 0 1.7-.6 1.7-1.7V12.6c0-1.2-.6-1.7-1.7-1.7h-7.5c-.6 0-.8.3-.8.9V24c0 .5.3.8.8.8zM50.7 52.6c-8.9 0-13.3-4.1-13.3-12.2V2.1c0-1.2.3-1.7.8-1.7h31.6c.6 0 .8.6.8 1.7v7c0 1.2-.3 1.7-.8 1.7h-20c-.6 0-.8.3-.8.9v8.7c0 .6.3.9.8.9h15c.6 0 .8.6.8 1.7v7c0 1.1-.3 1.7-.8 1.7h-15c-.6 0-.8.3-.8.9v7.8c0 1.2.6 1.7 1.7 1.7h19.1c.6 0 .8.6.8 1.7v7c0 1.2-.3 1.7-.8 1.7H50.7zM74 2.1c0-1.2.3-1.7.8-1.7h19.1c8.9 0 13.3 4.1 13.3 12.2V23c0 8.1-4.4 12.2-13.3 12.2h-8.3v15.7c0 1.2-.3 1.7-.8 1.7h-10c-.6 0-.8-.6-.8-1.7V2.1zm12.4 22.7h7.5c1.1 0 1.7-.6 1.7-1.7V12.6c0-1.2-.6-1.7-1.7-1.7h-7.5c-.6 0-.8.3-.8.9V24c0 .5.3.8.8.8z"></path></svg>
